<mxfile host="app.diagrams.net" modified="2021-03-18T03:18:55.435Z" agent="5.0 (Windows NT 10.0; Win64; x64) AppleWebKit/537.36 (KHTML, like Gecko) Chrome/89.0.4389.90 Safari/537.36 Edg/89.0.774.54" etag="1Q-_HN9V5waixjQ8zPzN" version="14.4.4" type="github">
  <diagram id="kgpKYQtTHZ0yAKxKKP6v" name="Page-1">
    <mxGraphModel dx="730" dy="331" grid="1" gridSize="10" guides="1" tooltips="1" connect="1" arrows="1" fold="1" page="1" pageScale="1" pageWidth="850" pageHeight="1100" math="0" shadow="0">
      <root>
        <mxCell id="0" />
        <mxCell id="1" parent="0" />
        <mxCell id="3nuBFxr9cyL0pnOWT2aG-1" value=":AMS" style="shape=umlLifeline;perimeter=lifelinePerimeter;container=1;collapsible=0;recursiveResize=0;rounded=0;shadow=0;strokeWidth=1;" parent="1" vertex="1">
          <mxGeometry x="120" y="80" width="100" height="930" as="geometry" />
        </mxCell>
        <mxCell id="3nuBFxr9cyL0pnOWT2aG-2" value="" style="points=[];perimeter=orthogonalPerimeter;rounded=0;shadow=0;strokeWidth=1;" parent="3nuBFxr9cyL0pnOWT2aG-1" vertex="1">
          <mxGeometry x="45" y="70" width="10" height="40" as="geometry" />
        </mxCell>
        <mxCell id="3nuBFxr9cyL0pnOWT2aG-3" value="" style="verticalAlign=bottom;startArrow=oval;endArrow=block;startSize=8;shadow=0;strokeWidth=1;" parent="3nuBFxr9cyL0pnOWT2aG-1" target="3nuBFxr9cyL0pnOWT2aG-2" edge="1">
          <mxGeometry relative="1" as="geometry">
            <mxPoint x="-15" y="70" as="sourcePoint" />
          </mxGeometry>
        </mxCell>
        <mxCell id="3nuBFxr9cyL0pnOWT2aG-5" value=":ProcessList" style="shape=umlLifeline;perimeter=lifelinePerimeter;container=1;collapsible=0;recursiveResize=0;rounded=0;shadow=0;strokeWidth=1;" parent="1" vertex="1">
          <mxGeometry x="250" y="80" width="100" height="300" as="geometry" />
        </mxCell>
        <mxCell id="3nuBFxr9cyL0pnOWT2aG-6" value="" style="points=[];perimeter=orthogonalPerimeter;rounded=0;shadow=0;strokeWidth=1;" parent="3nuBFxr9cyL0pnOWT2aG-5" vertex="1">
          <mxGeometry x="45" y="80" width="10" height="30" as="geometry" />
        </mxCell>
        <mxCell id="3nuBFxr9cyL0pnOWT2aG-8" value="startProcessLocked" style="verticalAlign=bottom;endArrow=block;entryX=0;entryY=0;shadow=0;strokeWidth=1;" parent="1" source="3nuBFxr9cyL0pnOWT2aG-2" target="3nuBFxr9cyL0pnOWT2aG-6" edge="1">
          <mxGeometry relative="1" as="geometry">
            <mxPoint x="275" y="160" as="sourcePoint" />
          </mxGeometry>
        </mxCell>
        <mxCell id="BRfG-0VQVotmKyR_Siqs-1" value=":Process" style="shape=umlLifeline;perimeter=lifelinePerimeter;container=1;collapsible=0;recursiveResize=0;rounded=0;shadow=0;strokeWidth=1;" vertex="1" parent="1">
          <mxGeometry x="390" y="80" width="100" height="300" as="geometry" />
        </mxCell>
        <mxCell id="BRfG-0VQVotmKyR_Siqs-2" value="" style="points=[];perimeter=orthogonalPerimeter;rounded=0;shadow=0;strokeWidth=1;" vertex="1" parent="BRfG-0VQVotmKyR_Siqs-1">
          <mxGeometry x="45" y="87.5" width="10" height="22.5" as="geometry" />
        </mxCell>
        <mxCell id="BRfG-0VQVotmKyR_Siqs-3" value="startProcessLocked" style="verticalAlign=bottom;endArrow=block;shadow=0;strokeWidth=1;" edge="1" parent="1" source="3nuBFxr9cyL0pnOWT2aG-6" target="BRfG-0VQVotmKyR_Siqs-2">
          <mxGeometry relative="1" as="geometry">
            <mxPoint x="380" y="172" as="sourcePoint" />
            <mxPoint x="500" y="172" as="targetPoint" />
            <Array as="points">
              <mxPoint x="420" y="170" />
            </Array>
          </mxGeometry>
        </mxCell>
        <mxCell id="BRfG-0VQVotmKyR_Siqs-4" value=":ZygoteProcess" style="shape=umlLifeline;perimeter=lifelinePerimeter;container=1;collapsible=0;recursiveResize=0;rounded=0;shadow=0;strokeWidth=1;" vertex="1" parent="1">
          <mxGeometry x="530" y="80" width="100" height="300" as="geometry" />
        </mxCell>
        <mxCell id="BRfG-0VQVotmKyR_Siqs-5" value="" style="points=[];perimeter=orthogonalPerimeter;rounded=0;shadow=0;strokeWidth=1;" vertex="1" parent="BRfG-0VQVotmKyR_Siqs-4">
          <mxGeometry x="45" y="87.5" width="10" height="162.5" as="geometry" />
        </mxCell>
        <mxCell id="BRfG-0VQVotmKyR_Siqs-6" value="start" style="verticalAlign=bottom;endArrow=block;shadow=0;strokeWidth=1;" edge="1" parent="1" target="BRfG-0VQVotmKyR_Siqs-5">
          <mxGeometry relative="1" as="geometry">
            <mxPoint x="445" y="173" as="sourcePoint" />
            <mxPoint x="575" y="173" as="targetPoint" />
            <Array as="points">
              <mxPoint x="565" y="173" />
            </Array>
          </mxGeometry>
        </mxCell>
        <mxCell id="BRfG-0VQVotmKyR_Siqs-12" value="" style="html=1;points=[];perimeter=orthogonalPerimeter;" vertex="1" parent="1">
          <mxGeometry x="580" y="180" width="10" height="110" as="geometry" />
        </mxCell>
        <mxCell id="BRfG-0VQVotmKyR_Siqs-13" value="&lt;pre style=&quot;background-color: #2b2b2b ; color: #a9b7c6 ; font-family: &amp;#34;consolas&amp;#34; , monospace ; font-size: 11.3pt&quot;&gt;&lt;br&gt;&lt;/pre&gt;" style="edgeStyle=orthogonalEdgeStyle;html=1;align=left;spacingLeft=2;endArrow=block;rounded=0;entryX=1;entryY=0;" edge="1" target="BRfG-0VQVotmKyR_Siqs-12" parent="1">
          <mxGeometry relative="1" as="geometry">
            <mxPoint x="585" y="170" as="sourcePoint" />
            <Array as="points">
              <mxPoint x="610" y="170" />
              <mxPoint x="610" y="180" />
            </Array>
          </mxGeometry>
        </mxCell>
        <mxCell id="BRfG-0VQVotmKyR_Siqs-14" value="startViaZygote" style="edgeLabel;html=1;align=center;verticalAlign=middle;resizable=0;points=[];" vertex="1" connectable="0" parent="BRfG-0VQVotmKyR_Siqs-13">
          <mxGeometry x="-0.3501" relative="1" as="geometry">
            <mxPoint x="27.09" y="-10" as="offset" />
          </mxGeometry>
        </mxCell>
        <mxCell id="BRfG-0VQVotmKyR_Siqs-17" value="&lt;span style=&quot;font-size: 11px ; background-color: rgb(255 , 255 , 255)&quot;&gt;zygoteSendArgsAndGetResult&lt;/span&gt;" style="text;html=1;align=center;verticalAlign=middle;resizable=0;points=[];autosize=1;" vertex="1" parent="1">
          <mxGeometry x="590" y="190" width="180" height="20" as="geometry" />
        </mxCell>
        <mxCell id="BRfG-0VQVotmKyR_Siqs-19" value="openZygoteSocketIfNeed" style="text;html=1;align=center;verticalAlign=middle;resizable=0;points=[];autosize=1;" vertex="1" parent="1">
          <mxGeometry x="590" y="210" width="150" height="20" as="geometry" />
        </mxCell>
        <mxCell id="BRfG-0VQVotmKyR_Siqs-20" value=":ZygoteServer.java" style="shape=umlLifeline;perimeter=lifelinePerimeter;container=1;collapsible=0;recursiveResize=0;rounded=0;shadow=0;strokeWidth=1;" vertex="1" parent="1">
          <mxGeometry x="780" y="80" width="100" height="300" as="geometry" />
        </mxCell>
        <mxCell id="BRfG-0VQVotmKyR_Siqs-21" value="" style="points=[];perimeter=orthogonalPerimeter;rounded=0;shadow=0;strokeWidth=1;" vertex="1" parent="BRfG-0VQVotmKyR_Siqs-20">
          <mxGeometry x="45" y="140" width="10" height="40" as="geometry" />
        </mxCell>
        <mxCell id="BRfG-0VQVotmKyR_Siqs-22" value="" style="endArrow=open;endSize=12;dashed=1;html=1;" edge="1" parent="BRfG-0VQVotmKyR_Siqs-20" source="BRfG-0VQVotmKyR_Siqs-21" target="BRfG-0VQVotmKyR_Siqs-20">
          <mxGeometry x="-0.0814" y="-10" width="160" relative="1" as="geometry">
            <mxPoint x="-190" y="160" as="sourcePoint" />
            <mxPoint x="-30" y="160" as="targetPoint" />
            <mxPoint as="offset" />
          </mxGeometry>
        </mxCell>
        <mxCell id="BRfG-0VQVotmKyR_Siqs-23" value="连接socket" style="endArrow=open;endSize=12;dashed=1;html=1;" edge="1" parent="1" target="BRfG-0VQVotmKyR_Siqs-21">
          <mxGeometry x="-0.0814" y="-10" width="160" relative="1" as="geometry">
            <mxPoint x="590" y="240" as="sourcePoint" />
            <mxPoint x="829.5" y="240" as="targetPoint" />
            <mxPoint as="offset" />
          </mxGeometry>
        </mxCell>
        <mxCell id="BRfG-0VQVotmKyR_Siqs-25" value="Loop" style="shape=umlFrame;whiteSpace=wrap;html=1;" vertex="1" parent="1">
          <mxGeometry x="760" y="200" width="140" height="60" as="geometry" />
        </mxCell>
        <mxCell id="BRfG-0VQVotmKyR_Siqs-26" value="runSelectLoop" style="text;html=1;align=center;verticalAlign=middle;resizable=0;points=[];autosize=1;" vertex="1" parent="1">
          <mxGeometry x="810" y="180" width="90" height="20" as="geometry" />
        </mxCell>
        <mxCell id="BRfG-0VQVotmKyR_Siqs-27" value="" style="verticalAlign=bottom;startArrow=oval;endArrow=block;startSize=8;shadow=0;strokeWidth=1;entryX=-0.06;entryY=0.251;entryDx=0;entryDy=0;entryPerimeter=0;" edge="1" parent="1" target="BRfG-0VQVotmKyR_Siqs-29">
          <mxGeometry relative="1" as="geometry">
            <mxPoint x="900" y="229" as="sourcePoint" />
            <mxPoint x="960" y="229" as="targetPoint" />
          </mxGeometry>
        </mxCell>
        <mxCell id="BRfG-0VQVotmKyR_Siqs-28" value=":ZygoteConnection" style="shape=umlLifeline;perimeter=lifelinePerimeter;container=1;collapsible=0;recursiveResize=0;rounded=0;shadow=0;strokeWidth=1;" vertex="1" parent="1">
          <mxGeometry x="960" y="80" width="100" height="300" as="geometry" />
        </mxCell>
        <mxCell id="BRfG-0VQVotmKyR_Siqs-29" value="" style="points=[];perimeter=orthogonalPerimeter;rounded=0;shadow=0;strokeWidth=1;" vertex="1" parent="BRfG-0VQVotmKyR_Siqs-28">
          <mxGeometry x="45" y="143.75" width="10" height="22.5" as="geometry" />
        </mxCell>
        <mxCell id="BRfG-0VQVotmKyR_Siqs-30" value=":Zygote" style="shape=umlLifeline;perimeter=lifelinePerimeter;container=1;collapsible=0;recursiveResize=0;rounded=0;shadow=0;strokeWidth=1;" vertex="1" parent="1">
          <mxGeometry x="1120" y="80" width="100" height="300" as="geometry" />
        </mxCell>
        <mxCell id="BRfG-0VQVotmKyR_Siqs-31" value="" style="points=[];perimeter=orthogonalPerimeter;rounded=0;shadow=0;strokeWidth=1;" vertex="1" parent="BRfG-0VQVotmKyR_Siqs-30">
          <mxGeometry x="45" y="150" width="10" height="60" as="geometry" />
        </mxCell>
        <mxCell id="BRfG-0VQVotmKyR_Siqs-38" value="" style="html=1;points=[];perimeter=orthogonalPerimeter;" vertex="1" parent="BRfG-0VQVotmKyR_Siqs-30">
          <mxGeometry x="55" y="169" width="10" height="22" as="geometry" />
        </mxCell>
        <mxCell id="BRfG-0VQVotmKyR_Siqs-39" value="forkAndSpecialize" style="edgeStyle=orthogonalEdgeStyle;html=1;align=left;spacingLeft=2;endArrow=block;rounded=0;entryX=1;entryY=0;" edge="1" target="BRfG-0VQVotmKyR_Siqs-38" parent="BRfG-0VQVotmKyR_Siqs-30">
          <mxGeometry relative="1" as="geometry">
            <mxPoint x="60" y="158" as="sourcePoint" />
            <Array as="points">
              <mxPoint x="85" y="158" />
            </Array>
          </mxGeometry>
        </mxCell>
        <mxCell id="BRfG-0VQVotmKyR_Siqs-32" value="processOneCommand" style="verticalAlign=bottom;endArrow=block;shadow=0;strokeWidth=1;exitX=0.944;exitY=0.761;exitDx=0;exitDy=0;exitPerimeter=0;entryX=0.133;entryY=0.167;entryDx=0;entryDy=0;entryPerimeter=0;" edge="1" parent="1" source="BRfG-0VQVotmKyR_Siqs-29" target="BRfG-0VQVotmKyR_Siqs-31">
          <mxGeometry relative="1" as="geometry">
            <mxPoint x="1020" y="240" as="sourcePoint" />
            <mxPoint x="1160" y="235" as="targetPoint" />
            <Array as="points">
              <mxPoint x="1140" y="240" />
            </Array>
          </mxGeometry>
        </mxCell>
        <mxCell id="BRfG-0VQVotmKyR_Siqs-34" value=":ZygoteInit" style="shape=umlLifeline;perimeter=lifelinePerimeter;container=1;collapsible=0;recursiveResize=0;rounded=0;shadow=0;strokeWidth=1;" vertex="1" parent="1">
          <mxGeometry x="1260" y="80" width="100" height="300" as="geometry" />
        </mxCell>
        <mxCell id="BRfG-0VQVotmKyR_Siqs-35" value="" style="points=[];perimeter=orthogonalPerimeter;rounded=0;shadow=0;strokeWidth=1;" vertex="1" parent="BRfG-0VQVotmKyR_Siqs-34">
          <mxGeometry x="45" y="200" width="10" height="70" as="geometry" />
        </mxCell>
        <mxCell id="BRfG-0VQVotmKyR_Siqs-41" value="" style="html=1;points=[];perimeter=orthogonalPerimeter;" vertex="1" parent="BRfG-0VQVotmKyR_Siqs-34">
          <mxGeometry x="55" y="220" width="10" height="40" as="geometry" />
        </mxCell>
        <mxCell id="BRfG-0VQVotmKyR_Siqs-42" value="zygoteInit" style="edgeStyle=orthogonalEdgeStyle;html=1;align=left;spacingLeft=2;endArrow=block;rounded=0;entryX=1;entryY=0;" edge="1" target="BRfG-0VQVotmKyR_Siqs-41" parent="BRfG-0VQVotmKyR_Siqs-34">
          <mxGeometry relative="1" as="geometry">
            <mxPoint x="60" y="200" as="sourcePoint" />
            <Array as="points">
              <mxPoint x="85" y="200" />
              <mxPoint x="85" y="220" />
            </Array>
          </mxGeometry>
        </mxCell>
        <mxCell id="BRfG-0VQVotmKyR_Siqs-40" value="handleChildProc" style="verticalAlign=bottom;endArrow=block;shadow=0;strokeWidth=1;exitX=1.067;exitY=0.858;exitDx=0;exitDy=0;exitPerimeter=0;" edge="1" parent="1" source="BRfG-0VQVotmKyR_Siqs-31">
          <mxGeometry relative="1" as="geometry">
            <mxPoint x="1180" y="280.87250000000006" as="sourcePoint" />
            <mxPoint x="1306" y="280" as="targetPoint" />
            <Array as="points">
              <mxPoint x="1305.56" y="280" />
            </Array>
          </mxGeometry>
        </mxCell>
      </root>
    </mxGraphModel>
  </diagram>
</mxfile>
